solid ASCII
  facet normal 0.000000e+00 0.000000e+00 1.000000e+00
    outer loop
      vertex   4.500000e+01 -1.700000e+01 -8.000000e+00
      vertex   1.150000e+02 -1.700000e+01 -8.000000e+00
      vertex   4.500000e+01 1.300000e+01 -8.000000e+00
    endloop
  endfacet
  facet normal -0.000000e+00 0.000000e+00 1.000000e+00
    outer loop
      vertex   4.500000e+01 1.300000e+01 -8.000000e+00
      vertex   1.150000e+02 -1.700000e+01 -8.000000e+00
      vertex   1.150000e+02 1.300000e+01 -8.000000e+00
    endloop
  endfacet
  facet normal 0.000000e+00 0.000000e+00 -1.000000e+00
    outer loop
      vertex   1.150000e+02 -1.700000e+01 -1.000000e+00
      vertex   4.500000e+01 -1.700000e+01 -1.000000e+00
      vertex   1.150000e+02 1.300000e+01 -1.000000e+00
    endloop
  endfacet
  facet normal -0.000000e+00 0.000000e+00 -1.000000e+00
    outer loop
      vertex   1.150000e+02 1.300000e+01 -1.000000e+00
      vertex   4.500000e+01 -1.700000e+01 -1.000000e+00
      vertex   4.500000e+01 1.300000e+01 -1.000000e+00
    endloop
  endfacet
  facet normal 0.000000e+00 -1.000000e+00 0.000000e+00
    outer loop
      vertex   4.500000e+01 1.300000e+01 -1.000000e+00
      vertex   4.500000e+01 1.300000e+01 -8.000000e+00
      vertex   1.150000e+02 1.300000e+01 -1.000000e+00
    endloop
  endfacet
  facet normal 0.000000e+00 -1.000000e+00 -0.000000e+00
    outer loop
      vertex   1.150000e+02 1.300000e+01 -1.000000e+00
      vertex   4.500000e+01 1.300000e+01 -8.000000e+00
      vertex   1.150000e+02 1.300000e+01 -8.000000e+00
    endloop
  endfacet
  facet normal -0.000000e+00 -1.000000e+00 -0.000000e+00
    outer loop
      vertex   1.150000e+02 -1.700000e+01 -8.000000e+00
      vertex   4.500000e+01 -1.700000e+01 -8.000000e+00
      vertex   1.150000e+02 -1.700000e+01 -1.000000e+01
    endloop
  endfacet
  facet normal 0.000000e+00 -1.000000e+00 0.000000e+00
    outer loop
      vertex   1.150000e+02 -1.700000e+01 -1.000000e+01
      vertex   4.500000e+01 -1.700000e+01 -8.000000e+00
      vertex   4.500000e+01 -1.700000e+01 -1.000000e+01
    endloop
  endfacet
  facet normal 0.000000e+00 -1.000000e+00 0.000000e+00
    outer loop
      vertex   4.500000e+01 -1.700000e+01 1.500000e+01
      vertex   4.500000e+01 -1.700000e+01 -1.000000e+00
      vertex   6.000000e+01 -1.700000e+01 1.000000e+01
    endloop
  endfacet
  facet normal 0.000000e+00 -1.000000e+00 -0.000000e+00
    outer loop
      vertex   6.000000e+01 -1.700000e+01 1.000000e+01
      vertex   4.500000e+01 -1.700000e+01 -1.000000e+00
      vertex   1.150000e+02 -1.700000e+01 -1.000000e+00
    endloop
  endfacet
  facet normal 0.000000e+00 -1.000000e+00 0.000000e+00
    outer loop
      vertex   6.000000e+01 -1.700000e+01 1.000000e+01
      vertex   1.150000e+02 -1.700000e+01 -1.000000e+00
      vertex   1.150000e+02 -1.700000e+01 1.000000e+01
    endloop
  endfacet
  facet normal 0.000000e+00 -1.000000e+00 0.000000e+00
    outer loop
      vertex   6.000000e+01 -1.700000e+01 1.000000e+01
      vertex   6.000000e+01 -1.700000e+01 1.500000e+01
      vertex   4.500000e+01 -1.700000e+01 1.500000e+01
    endloop
  endfacet
  facet normal 1.000000e+00 0.000000e+00 0.000000e+00
    outer loop
      vertex   1.150000e+02 -1.700000e+01 -1.000000e+00
      vertex   1.150000e+02 1.300000e+01 -1.000000e+00
      vertex   1.150000e+02 -1.700000e+01 1.000000e+01
    endloop
  endfacet
  facet normal 1.000000e+00 -0.000000e+00 0.000000e+00
    outer loop
      vertex   1.150000e+02 -1.700000e+01 1.000000e+01
      vertex   1.150000e+02 1.300000e+01 -1.000000e+00
      vertex   1.150000e+02 1.700000e+01 1.000000e+01
    endloop
  endfacet
  facet normal 1.000000e+00 0.000000e+00 0.000000e+00
    outer loop
      vertex   1.150000e+02 1.700000e+01 1.000000e+01
      vertex   1.150000e+02 1.300000e+01 -1.000000e+00
      vertex   1.150000e+02 1.700000e+01 -1.000000e+01
    endloop
  endfacet
  facet normal 1.000000e+00 0.000000e+00 0.000000e+00
    outer loop
      vertex   1.150000e+02 1.700000e+01 -1.000000e+01
      vertex   1.150000e+02 1.300000e+01 -1.000000e+00
      vertex   1.150000e+02 1.300000e+01 -8.000000e+00
    endloop
  endfacet
  facet normal 1.000000e+00 0.000000e+00 0.000000e+00
    outer loop
      vertex   1.150000e+02 1.700000e+01 -1.000000e+01
      vertex   1.150000e+02 1.300000e+01 -8.000000e+00
      vertex   1.150000e+02 -1.700000e+01 -1.000000e+01
    endloop
  endfacet
  facet normal 1.000000e+00 0.000000e+00 0.000000e+00
    outer loop
      vertex   1.150000e+02 -1.700000e+01 -1.000000e+01
      vertex   1.150000e+02 1.300000e+01 -8.000000e+00
      vertex   1.150000e+02 -1.700000e+01 -8.000000e+00
    endloop
  endfacet
  facet normal 0.000000e+00 0.000000e+00 -1.000000e+00
    outer loop
      vertex   1.150000e+02 -1.700000e+01 -1.000000e+01
      vertex   4.500000e+01 -1.700000e+01 -1.000000e+01
      vertex   1.150000e+02 1.700000e+01 -1.000000e+01
    endloop
  endfacet
  facet normal -0.000000e+00 0.000000e+00 -1.000000e+00
    outer loop
      vertex   1.150000e+02 1.700000e+01 -1.000000e+01
      vertex   4.500000e+01 -1.700000e+01 -1.000000e+01
      vertex   4.500000e+01 1.700000e+01 -1.000000e+01
    endloop
  endfacet
  facet normal 7.071068e-01 7.071068e-01 0.000000e+00
    outer loop
      vertex   5.350000e+01 -1.450000e+01 1.350000e+01
      vertex   5.500000e+01 -1.600000e+01 1.500000e+01
      vertex   5.500000e+01 -1.600000e+01 1.200000e+01
    endloop
  endfacet
  facet normal 0.000000e+00 7.071068e-01 -7.071068e-01
    outer loop
      vertex   5.150000e+01 -1.450000e+01 1.350000e+01
      vertex   5.350000e+01 -1.450000e+01 1.350000e+01
      vertex   5.000000e+01 -1.600000e+01 1.200000e+01
    endloop
  endfacet
  facet normal 0.000000e+00 7.071068e-01 -7.071068e-01
    outer loop
      vertex   5.000000e+01 -1.600000e+01 1.200000e+01
      vertex   5.350000e+01 -1.450000e+01 1.350000e+01
      vertex   5.500000e+01 -1.600000e+01 1.200000e+01
    endloop
  endfacet
  facet normal -7.071068e-01 7.071068e-01 0.000000e+00
    outer loop
      vertex   5.150000e+01 -1.450000e+01 1.350000e+01
      vertex   5.000000e+01 -1.600000e+01 1.200000e+01
      vertex   5.000000e+01 -1.600000e+01 1.500000e+01
    endloop
  endfacet
  facet normal 0.000000e+00 7.071068e-01 7.071068e-01
    outer loop
      vertex   5.350000e+01 -1.450000e+01 1.350000e+01
      vertex   5.150000e+01 -1.450000e+01 1.350000e+01
      vertex   5.500000e+01 -1.600000e+01 1.500000e+01
    endloop
  endfacet
  facet normal 0.000000e+00 7.071068e-01 7.071068e-01
    outer loop
      vertex   5.500000e+01 -1.600000e+01 1.500000e+01
      vertex   5.150000e+01 -1.450000e+01 1.350000e+01
      vertex   5.000000e+01 -1.600000e+01 1.500000e+01
    endloop
  endfacet
  facet normal 8.881786e-16 1.000000e+00 0.000000e+00
    outer loop
      vertex   5.000000e+01 -1.600000e+01 1.500000e+01
      vertex   5.000000e+01 -1.600000e+01 1.200000e+01
      vertex   4.600000e+01 -1.600000e+01 1.500000e+01
    endloop
  endfacet
  facet normal 8.881786e-16 1.000000e+00 0.000000e+00
    outer loop
      vertex   4.600000e+01 -1.600000e+01 1.500000e+01
      vertex   5.000000e+01 -1.600000e+01 1.200000e+01
      vertex   4.600000e+01 -1.600000e+01 1.000000e+00
    endloop
  endfacet
  facet normal 6.021549e-17 1.000000e+00 3.010774e-16
    outer loop
      vertex   4.600000e+01 -1.600000e+01 1.000000e+00
      vertex   5.000000e+01 -1.600000e+01 1.200000e+01
      vertex   6.000000e+01 -1.600000e+01 1.000000e+01
    endloop
  endfacet
  facet normal 8.074349e-17 1.000000e+00 2.691450e-16
    outer loop
      vertex   4.600000e+01 -1.600000e+01 1.000000e+00
      vertex   6.000000e+01 -1.600000e+01 1.000000e+01
      vertex   7.000000e+01 -1.600000e+01 7.000000e+00
    endloop
  endfacet
  facet normal 0.000000e+00 1.000000e+00 -0.000000e+00
    outer loop
      vertex   7.000000e+01 -1.600000e+01 7.000000e+00
      vertex   6.000000e+01 -1.600000e+01 1.000000e+01
      vertex   7.000000e+01 -1.600000e+01 1.000000e+01
    endloop
  endfacet
  facet normal -0.000000e+00 1.000000e+00 0.000000e+00
    outer loop
      vertex   5.000000e+01 -1.600000e+01 1.200000e+01
      vertex   5.500000e+01 -1.600000e+01 1.200000e+01
      vertex   6.000000e+01 -1.600000e+01 1.000000e+01
    endloop
  endfacet
  facet normal 0.000000e+00 1.000000e+00 -0.000000e+00
    outer loop
      vertex   6.000000e+01 -1.600000e+01 1.000000e+01
      vertex   5.500000e+01 -1.600000e+01 1.200000e+01
      vertex   6.000000e+01 -1.600000e+01 1.500000e+01
    endloop
  endfacet
  facet normal 0.000000e+00 1.000000e+00 0.000000e+00
    outer loop
      vertex   6.000000e+01 -1.600000e+01 1.500000e+01
      vertex   5.500000e+01 -1.600000e+01 1.200000e+01
      vertex   5.500000e+01 -1.600000e+01 1.500000e+01
    endloop
  endfacet
  facet normal -0.000000e+00 1.000000e+00 5.921189e-16
    outer loop
      vertex   4.600000e+01 -1.600000e+01 1.000000e+00
      vertex   7.000000e+01 -1.600000e+01 7.000000e+00
      vertex   1.140000e+02 -1.600000e+01 1.000000e+00
    endloop
  endfacet
  facet normal 0.000000e+00 1.000000e+00 5.921189e-16
    outer loop
      vertex   1.140000e+02 -1.600000e+01 1.000000e+00
      vertex   7.000000e+01 -1.600000e+01 7.000000e+00
      vertex   1.020000e+02 -1.600000e+01 7.000000e+00
    endloop
  endfacet
  facet normal -2.960595e-16 1.000000e+00 0.000000e+00
    outer loop
      vertex   1.140000e+02 -1.600000e+01 1.000000e+00
      vertex   1.020000e+02 -1.600000e+01 7.000000e+00
      vertex   1.140000e+02 -1.600000e+01 1.000000e+01
    endloop
  endfacet
  facet normal -2.960595e-16 1.000000e+00 0.000000e+00
    outer loop
      vertex   1.140000e+02 -1.600000e+01 1.000000e+01
      vertex   1.020000e+02 -1.600000e+01 7.000000e+00
      vertex   1.020000e+02 -1.600000e+01 1.000000e+01
    endloop
  endfacet
  facet normal 7.071068e-01 -7.071068e-01 0.000000e+00
    outer loop
      vertex   5.500000e+01 1.600000e+01 1.500000e+01
      vertex   5.350000e+01 1.450000e+01 1.350000e+01
      vertex   5.500000e+01 1.600000e+01 1.200000e+01
    endloop
  endfacet
  facet normal 0.000000e+00 -7.071068e-01 -7.071068e-01
    outer loop
      vertex   5.000000e+01 1.600000e+01 1.200000e+01
      vertex   5.500000e+01 1.600000e+01 1.200000e+01
      vertex   5.150000e+01 1.450000e+01 1.350000e+01
    endloop
  endfacet
  facet normal 0.000000e+00 -7.071068e-01 -7.071068e-01
    outer loop
      vertex   5.150000e+01 1.450000e+01 1.350000e+01
      vertex   5.500000e+01 1.600000e+01 1.200000e+01
      vertex   5.350000e+01 1.450000e+01 1.350000e+01
    endloop
  endfacet
  facet normal -7.071068e-01 -7.071068e-01 0.000000e+00
    outer loop
      vertex   5.000000e+01 1.600000e+01 1.200000e+01
      vertex   5.150000e+01 1.450000e+01 1.350000e+01
      vertex   5.000000e+01 1.600000e+01 1.500000e+01
    endloop
  endfacet
  facet normal 0.000000e+00 -7.071068e-01 7.071068e-01
    outer loop
      vertex   5.500000e+01 1.600000e+01 1.500000e+01
      vertex   5.000000e+01 1.600000e+01 1.500000e+01
      vertex   5.350000e+01 1.450000e+01 1.350000e+01
    endloop
  endfacet
  facet normal 0.000000e+00 -7.071068e-01 7.071068e-01
    outer loop
      vertex   5.350000e+01 1.450000e+01 1.350000e+01
      vertex   5.000000e+01 1.600000e+01 1.500000e+01
      vertex   5.150000e+01 1.450000e+01 1.350000e+01
    endloop
  endfacet
  facet normal 0.000000e+00 -1.000000e+00 0.000000e+00
    outer loop
      vertex   4.600000e+01 8.000000e+00 3.000000e+00
      vertex   4.600000e+01 8.000000e+00 1.200000e+01
      vertex   4.500000e+01 8.000000e+00 3.000000e+00
    endloop
  endfacet
  facet normal 0.000000e+00 -1.000000e+00 0.000000e+00
    outer loop
      vertex   4.500000e+01 8.000000e+00 3.000000e+00
      vertex   4.600000e+01 8.000000e+00 1.200000e+01
      vertex   4.500000e+01 8.000000e+00 1.200000e+01
    endloop
  endfacet
  facet normal 0.000000e+00 -0.000000e+00 1.000000e+00
    outer loop
      vertex   4.600000e+01 -8.000000e+00 3.000000e+00
      vertex   4.600000e+01 8.000000e+00 3.000000e+00
      vertex   4.500000e+01 -8.000000e+00 3.000000e+00
    endloop
  endfacet
  facet normal 0.000000e+00 0.000000e+00 1.000000e+00
    outer loop
      vertex   4.500000e+01 -8.000000e+00 3.000000e+00
      vertex   4.600000e+01 8.000000e+00 3.000000e+00
      vertex   4.500000e+01 8.000000e+00 3.000000e+00
    endloop
  endfacet
  facet normal 0.000000e+00 1.000000e+00 0.000000e+00
    outer loop
      vertex   4.600000e+01 -8.000000e+00 1.200000e+01
      vertex   4.600000e+01 -8.000000e+00 3.000000e+00
      vertex   4.500000e+01 -8.000000e+00 1.200000e+01
    endloop
  endfacet
  facet normal 0.000000e+00 1.000000e+00 0.000000e+00
    outer loop
      vertex   4.500000e+01 -8.000000e+00 1.200000e+01
      vertex   4.600000e+01 -8.000000e+00 3.000000e+00
      vertex   4.500000e+01 -8.000000e+00 3.000000e+00
    endloop
  endfacet
  facet normal -0.000000e+00 -0.000000e+00 -1.000000e+00
    outer loop
      vertex   4.600000e+01 8.000000e+00 1.200000e+01
      vertex   4.600000e+01 -8.000000e+00 1.200000e+01
      vertex   4.500000e+01 8.000000e+00 1.200000e+01
    endloop
  endfacet
  facet normal 0.000000e+00 0.000000e+00 -1.000000e+00
    outer loop
      vertex   4.500000e+01 8.000000e+00 1.200000e+01
      vertex   4.600000e+01 -8.000000e+00 1.200000e+01
      vertex   4.500000e+01 -8.000000e+00 1.200000e+01
    endloop
  endfacet
  facet normal 7.071068e-01 7.071068e-01 0.000000e+00
    outer loop
      vertex   1.005000e+02 -1.450000e+01 8.500000e+00
      vertex   1.020000e+02 -1.600000e+01 1.000000e+01
      vertex   1.020000e+02 -1.600000e+01 7.000000e+00
    endloop
  endfacet
  facet normal 0.000000e+00 7.071068e-01 -7.071068e-01
    outer loop
      vertex   7.150000e+01 -1.450000e+01 8.500000e+00
      vertex   1.005000e+02 -1.450000e+01 8.500000e+00
      vertex   7.000000e+01 -1.600000e+01 7.000000e+00
    endloop
  endfacet
  facet normal 0.000000e+00 7.071068e-01 -7.071068e-01
    outer loop
      vertex   7.000000e+01 -1.600000e+01 7.000000e+00
      vertex   1.005000e+02 -1.450000e+01 8.500000e+00
      vertex   1.020000e+02 -1.600000e+01 7.000000e+00
    endloop
  endfacet
  facet normal -7.071068e-01 7.071068e-01 0.000000e+00
    outer loop
      vertex   7.150000e+01 -1.450000e+01 8.500000e+00
      vertex   7.000000e+01 -1.600000e+01 7.000000e+00
      vertex   7.000000e+01 -1.600000e+01 1.000000e+01
    endloop
  endfacet
  facet normal 0.000000e+00 7.071068e-01 7.071068e-01
    outer loop
      vertex   1.005000e+02 -1.450000e+01 8.500000e+00
      vertex   7.150000e+01 -1.450000e+01 8.500000e+00
      vertex   1.020000e+02 -1.600000e+01 1.000000e+01
    endloop
  endfacet
  facet normal 0.000000e+00 7.071068e-01 7.071068e-01
    outer loop
      vertex   1.020000e+02 -1.600000e+01 1.000000e+01
      vertex   7.150000e+01 -1.450000e+01 8.500000e+00
      vertex   7.000000e+01 -1.600000e+01 1.000000e+01
    endloop
  endfacet
  facet normal 7.071068e-01 -7.071068e-01 0.000000e+00
    outer loop
      vertex   1.020000e+02 1.600000e+01 1.000000e+01
      vertex   1.005000e+02 1.450000e+01 8.500000e+00
      vertex   1.020000e+02 1.600000e+01 7.000000e+00
    endloop
  endfacet
  facet normal 0.000000e+00 -7.071068e-01 -7.071068e-01
    outer loop
      vertex   7.000000e+01 1.600000e+01 7.000000e+00
      vertex   1.020000e+02 1.600000e+01 7.000000e+00
      vertex   7.150000e+01 1.450000e+01 8.500000e+00
    endloop
  endfacet
  facet normal 0.000000e+00 -7.071068e-01 -7.071068e-01
    outer loop
      vertex   7.150000e+01 1.450000e+01 8.500000e+00
      vertex   1.020000e+02 1.600000e+01 7.000000e+00
      vertex   1.005000e+02 1.450000e+01 8.500000e+00
    endloop
  endfacet
  facet normal -7.071068e-01 -7.071068e-01 0.000000e+00
    outer loop
      vertex   7.000000e+01 1.600000e+01 7.000000e+00
      vertex   7.150000e+01 1.450000e+01 8.500000e+00
      vertex   7.000000e+01 1.600000e+01 1.000000e+01
    endloop
  endfacet
  facet normal 0.000000e+00 -7.071068e-01 7.071068e-01
    outer loop
      vertex   1.020000e+02 1.600000e+01 1.000000e+01
      vertex   7.000000e+01 1.600000e+01 1.000000e+01
      vertex   1.005000e+02 1.450000e+01 8.500000e+00
    endloop
  endfacet
  facet normal 0.000000e+00 -7.071068e-01 7.071068e-01
    outer loop
      vertex   1.005000e+02 1.450000e+01 8.500000e+00
      vertex   7.000000e+01 1.600000e+01 1.000000e+01
      vertex   7.150000e+01 1.450000e+01 8.500000e+00
    endloop
  endfacet
  facet normal -1.000000e+00 0.000000e+00 0.000000e+00
    outer loop
      vertex   1.140000e+02 1.600000e+01 1.000000e+00
      vertex   1.140000e+02 -1.600000e+01 1.000000e+00
      vertex   1.140000e+02 1.600000e+01 1.000000e+01
    endloop
  endfacet
  facet normal -1.000000e+00 -0.000000e+00 0.000000e+00
    outer loop
      vertex   1.140000e+02 1.600000e+01 1.000000e+01
      vertex   1.140000e+02 -1.600000e+01 1.000000e+00
      vertex   1.140000e+02 -1.600000e+01 1.000000e+01
    endloop
  endfacet
  facet normal 8.881786e-16 -1.000000e+00 0.000000e+00
    outer loop
      vertex   5.000000e+01 1.600000e+01 1.500000e+01
      vertex   4.600000e+01 1.600000e+01 1.500000e+01
      vertex   5.000000e+01 1.600000e+01 1.200000e+01
    endloop
  endfacet
  facet normal 8.881786e-16 -1.000000e+00 0.000000e+00
    outer loop
      vertex   5.000000e+01 1.600000e+01 1.200000e+01
      vertex   4.600000e+01 1.600000e+01 1.500000e+01
      vertex   4.600000e+01 1.600000e+01 1.000000e+00
    endloop
  endfacet
  facet normal 6.021549e-17 -1.000000e+00 3.010774e-16
    outer loop
      vertex   5.000000e+01 1.600000e+01 1.200000e+01
      vertex   4.600000e+01 1.600000e+01 1.000000e+00
      vertex   6.000000e+01 1.600000e+01 1.000000e+01
    endloop
  endfacet
  facet normal 8.074349e-17 -1.000000e+00 2.691450e-16
    outer loop
      vertex   6.000000e+01 1.600000e+01 1.000000e+01
      vertex   4.600000e+01 1.600000e+01 1.000000e+00
      vertex   7.000000e+01 1.600000e+01 7.000000e+00
    endloop
  endfacet
  facet normal 0.000000e+00 -1.000000e+00 0.000000e+00
    outer loop
      vertex   6.000000e+01 1.600000e+01 1.000000e+01
      vertex   7.000000e+01 1.600000e+01 7.000000e+00
      vertex   7.000000e+01 1.600000e+01 1.000000e+01
    endloop
  endfacet
  facet normal 0.000000e+00 -1.000000e+00 5.921189e-16
    outer loop
      vertex   4.600000e+01 1.600000e+01 1.000000e+00
      vertex   1.140000e+02 1.600000e+01 1.000000e+00
      vertex   7.000000e+01 1.600000e+01 7.000000e+00
    endloop
  endfacet
  facet normal 0.000000e+00 -1.000000e+00 5.921189e-16
    outer loop
      vertex   7.000000e+01 1.600000e+01 7.000000e+00
      vertex   1.140000e+02 1.600000e+01 1.000000e+00
      vertex   1.020000e+02 1.600000e+01 7.000000e+00
    endloop
  endfacet
  facet normal -2.960595e-16 -1.000000e+00 0.000000e+00
    outer loop
      vertex   1.020000e+02 1.600000e+01 7.000000e+00
      vertex   1.140000e+02 1.600000e+01 1.000000e+00
      vertex   1.140000e+02 1.600000e+01 1.000000e+01
    endloop
  endfacet
  facet normal -2.960595e-16 -1.000000e+00 0.000000e+00
    outer loop
      vertex   1.020000e+02 1.600000e+01 7.000000e+00
      vertex   1.140000e+02 1.600000e+01 1.000000e+01
      vertex   1.020000e+02 1.600000e+01 1.000000e+01
    endloop
  endfacet
  facet normal 0.000000e+00 -1.000000e+00 0.000000e+00
    outer loop
      vertex   5.000000e+01 1.600000e+01 1.200000e+01
      vertex   6.000000e+01 1.600000e+01 1.000000e+01
      vertex   5.500000e+01 1.600000e+01 1.200000e+01
    endloop
  endfacet
  facet normal 0.000000e+00 -1.000000e+00 0.000000e+00
    outer loop
      vertex   5.500000e+01 1.600000e+01 1.200000e+01
      vertex   6.000000e+01 1.600000e+01 1.000000e+01
      vertex   6.000000e+01 1.600000e+01 1.500000e+01
    endloop
  endfacet
  facet normal 0.000000e+00 -1.000000e+00 0.000000e+00
    outer loop
      vertex   5.500000e+01 1.600000e+01 1.200000e+01
      vertex   6.000000e+01 1.600000e+01 1.500000e+01
      vertex   5.500000e+01 1.600000e+01 1.500000e+01
    endloop
  endfacet
  facet normal 1.000000e+00 0.000000e+00 0.000000e+00
    outer loop
      vertex   4.600000e+01 -8.000000e+00 1.200000e+01
      vertex   4.600000e+01 -1.600000e+01 1.000000e+00
      vertex   4.600000e+01 -8.000000e+00 3.000000e+00
    endloop
  endfacet
  facet normal 1.000000e+00 0.000000e+00 0.000000e+00
    outer loop
      vertex   4.600000e+01 -8.000000e+00 3.000000e+00
      vertex   4.600000e+01 -1.600000e+01 1.000000e+00
      vertex   4.600000e+01 1.600000e+01 1.000000e+00
    endloop
  endfacet
  facet normal 1.000000e+00 -0.000000e+00 0.000000e+00
    outer loop
      vertex   4.600000e+01 -8.000000e+00 3.000000e+00
      vertex   4.600000e+01 1.600000e+01 1.000000e+00
      vertex   4.600000e+01 8.000000e+00 3.000000e+00
    endloop
  endfacet
  facet normal 1.000000e+00 -0.000000e+00 0.000000e+00
    outer loop
      vertex   4.600000e+01 8.000000e+00 3.000000e+00
      vertex   4.600000e+01 1.600000e+01 1.000000e+00
      vertex   4.600000e+01 8.000000e+00 1.200000e+01
    endloop
  endfacet
  facet normal 1.000000e+00 -0.000000e+00 0.000000e+00
    outer loop
      vertex   4.600000e+01 8.000000e+00 1.200000e+01
      vertex   4.600000e+01 1.600000e+01 1.000000e+00
      vertex   4.600000e+01 1.600000e+01 1.500000e+01
    endloop
  endfacet
  facet normal 1.000000e+00 0.000000e+00 -0.000000e+00
    outer loop
      vertex   4.600000e+01 8.000000e+00 1.200000e+01
      vertex   4.600000e+01 1.600000e+01 1.500000e+01
      vertex   4.600000e+01 -1.600000e+01 1.500000e+01
    endloop
  endfacet
  facet normal 1.000000e+00 0.000000e+00 0.000000e+00
    outer loop
      vertex   4.600000e+01 -1.600000e+01 1.000000e+00
      vertex   4.600000e+01 -8.000000e+00 1.200000e+01
      vertex   4.600000e+01 -1.600000e+01 1.500000e+01
    endloop
  endfacet
  facet normal 1.000000e+00 0.000000e+00 0.000000e+00
    outer loop
      vertex   4.600000e+01 -1.600000e+01 1.500000e+01
      vertex   4.600000e+01 -8.000000e+00 1.200000e+01
      vertex   4.600000e+01 8.000000e+00 1.200000e+01
    endloop
  endfacet
  facet normal 0.000000e+00 0.000000e+00 1.000000e+00
    outer loop
      vertex   4.600000e+01 -1.600000e+01 1.000000e+00
      vertex   1.140000e+02 -1.600000e+01 1.000000e+00
      vertex   4.600000e+01 1.600000e+01 1.000000e+00
    endloop
  endfacet
  facet normal -0.000000e+00 0.000000e+00 1.000000e+00
    outer loop
      vertex   4.600000e+01 1.600000e+01 1.000000e+00
      vertex   1.140000e+02 -1.600000e+01 1.000000e+00
      vertex   1.140000e+02 1.600000e+01 1.000000e+00
    endloop
  endfacet
  facet normal 0.000000e+00 0.000000e+00 1.000000e+00
    outer loop
      vertex   6.000000e+01 -1.600000e+01 1.500000e+01
      vertex   5.500000e+01 -1.600000e+01 1.500000e+01
      vertex   6.000000e+01 -1.700000e+01 1.500000e+01
    endloop
  endfacet
  facet normal 0.000000e+00 0.000000e+00 1.000000e+00
    outer loop
      vertex   6.000000e+01 -1.700000e+01 1.500000e+01
      vertex   5.500000e+01 -1.600000e+01 1.500000e+01
      vertex   4.500000e+01 -1.700000e+01 1.500000e+01
    endloop
  endfacet
  facet normal 0.000000e+00 0.000000e+00 1.000000e+00
    outer loop
      vertex   4.500000e+01 -1.700000e+01 1.500000e+01
      vertex   5.500000e+01 -1.600000e+01 1.500000e+01
      vertex   5.000000e+01 -1.600000e+01 1.500000e+01
    endloop
  endfacet
  facet normal 0.000000e+00 0.000000e+00 1.000000e+00
    outer loop
      vertex   4.500000e+01 -1.700000e+01 1.500000e+01
      vertex   5.000000e+01 -1.600000e+01 1.500000e+01
      vertex   4.600000e+01 -1.600000e+01 1.500000e+01
    endloop
  endfacet
  facet normal 0.000000e+00 -0.000000e+00 1.000000e+00
    outer loop
      vertex   4.600000e+01 -1.600000e+01 1.500000e+01
      vertex   4.600000e+01 1.600000e+01 1.500000e+01
      vertex   4.500000e+01 -1.700000e+01 1.500000e+01
    endloop
  endfacet
  facet normal 0.000000e+00 0.000000e+00 1.000000e+00
    outer loop
      vertex   4.500000e+01 -1.700000e+01 1.500000e+01
      vertex   4.600000e+01 1.600000e+01 1.500000e+01
      vertex   4.500000e+01 1.700000e+01 1.500000e+01
    endloop
  endfacet
  facet normal 0.000000e+00 0.000000e+00 1.000000e+00
    outer loop
      vertex   4.500000e+01 1.700000e+01 1.500000e+01
      vertex   4.600000e+01 1.600000e+01 1.500000e+01
      vertex   5.000000e+01 1.600000e+01 1.500000e+01
    endloop
  endfacet
  facet normal 0.000000e+00 0.000000e+00 1.000000e+00
    outer loop
      vertex   4.500000e+01 1.700000e+01 1.500000e+01
      vertex   5.000000e+01 1.600000e+01 1.500000e+01
      vertex   5.500000e+01 1.600000e+01 1.500000e+01
    endloop
  endfacet
  facet normal 0.000000e+00 -0.000000e+00 1.000000e+00
    outer loop
      vertex   6.000000e+01 1.600000e+01 1.500000e+01
      vertex   6.000000e+01 1.700000e+01 1.500000e+01
      vertex   5.500000e+01 1.600000e+01 1.500000e+01
    endloop
  endfacet
  facet normal 0.000000e+00 -0.000000e+00 1.000000e+00
    outer loop
      vertex   5.500000e+01 1.600000e+01 1.500000e+01
      vertex   6.000000e+01 1.700000e+01 1.500000e+01
      vertex   4.500000e+01 1.700000e+01 1.500000e+01
    endloop
  endfacet
  facet normal 1.000000e+00 0.000000e+00 0.000000e+00
    outer loop
      vertex   6.000000e+01 1.600000e+01 1.000000e+01
      vertex   6.000000e+01 1.700000e+01 1.000000e+01
      vertex   6.000000e+01 1.600000e+01 1.500000e+01
    endloop
  endfacet
  facet normal 1.000000e+00 -0.000000e+00 0.000000e+00
    outer loop
      vertex   6.000000e+01 1.600000e+01 1.500000e+01
      vertex   6.000000e+01 1.700000e+01 1.000000e+01
      vertex   6.000000e+01 1.700000e+01 1.500000e+01
    endloop
  endfacet
  facet normal 0.000000e+00 0.000000e+00 1.000000e+00
    outer loop
      vertex   1.140000e+02 1.600000e+01 1.000000e+01
      vertex   1.140000e+02 -1.600000e+01 1.000000e+01
      vertex   1.150000e+02 -1.700000e+01 1.000000e+01
    endloop
  endfacet
  facet normal 0.000000e+00 0.000000e+00 1.000000e+00
    outer loop
      vertex   1.150000e+02 -1.700000e+01 1.000000e+01
      vertex   1.140000e+02 -1.600000e+01 1.000000e+01
      vertex   1.020000e+02 -1.600000e+01 1.000000e+01
    endloop
  endfacet
  facet normal 0.000000e+00 0.000000e+00 1.000000e+00
    outer loop
      vertex   1.150000e+02 -1.700000e+01 1.000000e+01
      vertex   1.020000e+02 -1.600000e+01 1.000000e+01
      vertex   6.000000e+01 -1.700000e+01 1.000000e+01
    endloop
  endfacet
  facet normal 0.000000e+00 0.000000e+00 1.000000e+00
    outer loop
      vertex   6.000000e+01 -1.700000e+01 1.000000e+01
      vertex   1.020000e+02 -1.600000e+01 1.000000e+01
      vertex   7.000000e+01 -1.600000e+01 1.000000e+01
    endloop
  endfacet
  facet normal 0.000000e+00 0.000000e+00 1.000000e+00
    outer loop
      vertex   6.000000e+01 -1.700000e+01 1.000000e+01
      vertex   7.000000e+01 -1.600000e+01 1.000000e+01
      vertex   6.000000e+01 -1.600000e+01 1.000000e+01
    endloop
  endfacet
  facet normal 0.000000e+00 -0.000000e+00 1.000000e+00
    outer loop
      vertex   1.150000e+02 -1.700000e+01 1.000000e+01
      vertex   1.150000e+02 1.700000e+01 1.000000e+01
      vertex   1.140000e+02 1.600000e+01 1.000000e+01
    endloop
  endfacet
  facet normal 0.000000e+00 -0.000000e+00 1.000000e+00
    outer loop
      vertex   1.140000e+02 1.600000e+01 1.000000e+01
      vertex   1.150000e+02 1.700000e+01 1.000000e+01
      vertex   1.020000e+02 1.600000e+01 1.000000e+01
    endloop
  endfacet
  facet normal 0.000000e+00 -0.000000e+00 1.000000e+00
    outer loop
      vertex   1.020000e+02 1.600000e+01 1.000000e+01
      vertex   1.150000e+02 1.700000e+01 1.000000e+01
      vertex   6.000000e+01 1.700000e+01 1.000000e+01
    endloop
  endfacet
  facet normal 0.000000e+00 0.000000e+00 1.000000e+00
    outer loop
      vertex   1.020000e+02 1.600000e+01 1.000000e+01
      vertex   6.000000e+01 1.700000e+01 1.000000e+01
      vertex   7.000000e+01 1.600000e+01 1.000000e+01
    endloop
  endfacet
  facet normal 0.000000e+00 0.000000e+00 1.000000e+00
    outer loop
      vertex   7.000000e+01 1.600000e+01 1.000000e+01
      vertex   6.000000e+01 1.700000e+01 1.000000e+01
      vertex   6.000000e+01 1.600000e+01 1.000000e+01
    endloop
  endfacet
  facet normal 0.000000e+00 1.000000e+00 0.000000e+00
    outer loop
      vertex   1.150000e+02 1.700000e+01 -1.000000e+01
      vertex   4.500000e+01 1.700000e+01 -1.000000e+01
      vertex   6.000000e+01 1.700000e+01 1.000000e+01
    endloop
  endfacet
  facet normal 0.000000e+00 1.000000e+00 0.000000e+00
    outer loop
      vertex   6.000000e+01 1.700000e+01 1.000000e+01
      vertex   4.500000e+01 1.700000e+01 -1.000000e+01
      vertex   4.500000e+01 1.700000e+01 1.500000e+01
    endloop
  endfacet
  facet normal 0.000000e+00 1.000000e+00 -0.000000e+00
    outer loop
      vertex   6.000000e+01 1.700000e+01 1.000000e+01
      vertex   4.500000e+01 1.700000e+01 1.500000e+01
      vertex   6.000000e+01 1.700000e+01 1.500000e+01
    endloop
  endfacet
  facet normal -0.000000e+00 1.000000e+00 0.000000e+00
    outer loop
      vertex   6.000000e+01 1.700000e+01 1.000000e+01
      vertex   1.150000e+02 1.700000e+01 1.000000e+01
      vertex   1.150000e+02 1.700000e+01 -1.000000e+01
    endloop
  endfacet
  facet normal 1.000000e+00 0.000000e+00 0.000000e+00
    outer loop
      vertex   6.000000e+01 -1.600000e+01 1.500000e+01
      vertex   6.000000e+01 -1.700000e+01 1.500000e+01
      vertex   6.000000e+01 -1.600000e+01 1.000000e+01
    endloop
  endfacet
  facet normal 1.000000e+00 0.000000e+00 0.000000e+00
    outer loop
      vertex   6.000000e+01 -1.600000e+01 1.000000e+01
      vertex   6.000000e+01 -1.700000e+01 1.500000e+01
      vertex   6.000000e+01 -1.700000e+01 1.000000e+01
    endloop
  endfacet
  facet normal -1.000000e+00 0.000000e+00 0.000000e+00
    outer loop
      vertex   4.500000e+01 -1.700000e+01 -1.000000e+00
      vertex   4.500000e+01 -8.000000e+00 3.000000e+00
      vertex   4.500000e+01 1.300000e+01 -1.000000e+00
    endloop
  endfacet
  facet normal -1.000000e+00 0.000000e+00 0.000000e+00
    outer loop
      vertex   4.500000e+01 1.300000e+01 -1.000000e+00
      vertex   4.500000e+01 -8.000000e+00 3.000000e+00
      vertex   4.500000e+01 8.000000e+00 3.000000e+00
    endloop
  endfacet
  facet normal -1.000000e+00 0.000000e+00 0.000000e+00
    outer loop
      vertex   4.500000e+01 1.300000e+01 -1.000000e+00
      vertex   4.500000e+01 8.000000e+00 3.000000e+00
      vertex   4.500000e+01 1.700000e+01 1.500000e+01
    endloop
  endfacet
  facet normal -1.000000e+00 0.000000e+00 0.000000e+00
    outer loop
      vertex   4.500000e+01 1.700000e+01 1.500000e+01
      vertex   4.500000e+01 8.000000e+00 3.000000e+00
      vertex   4.500000e+01 8.000000e+00 1.200000e+01
    endloop
  endfacet
  facet normal -1.000000e+00 0.000000e+00 0.000000e+00
    outer loop
      vertex   4.500000e+01 1.700000e+01 1.500000e+01
      vertex   4.500000e+01 8.000000e+00 1.200000e+01
      vertex   4.500000e+01 -8.000000e+00 1.200000e+01
    endloop
  endfacet
  facet normal -1.000000e+00 0.000000e+00 0.000000e+00
    outer loop
      vertex   4.500000e+01 -1.700000e+01 -1.000000e+00
      vertex   4.500000e+01 -1.700000e+01 1.500000e+01
      vertex   4.500000e+01 -8.000000e+00 3.000000e+00
    endloop
  endfacet
  facet normal -1.000000e+00 0.000000e+00 0.000000e+00
    outer loop
      vertex   4.500000e+01 -8.000000e+00 3.000000e+00
      vertex   4.500000e+01 -1.700000e+01 1.500000e+01
      vertex   4.500000e+01 -8.000000e+00 1.200000e+01
    endloop
  endfacet
  facet normal -1.000000e+00 0.000000e+00 0.000000e+00
    outer loop
      vertex   4.500000e+01 -8.000000e+00 1.200000e+01
      vertex   4.500000e+01 -1.700000e+01 1.500000e+01
      vertex   4.500000e+01 1.700000e+01 1.500000e+01
    endloop
  endfacet
  facet normal -1.000000e+00 0.000000e+00 -0.000000e+00
    outer loop
      vertex   4.500000e+01 1.700000e+01 1.500000e+01
      vertex   4.500000e+01 1.700000e+01 -1.000000e+01
      vertex   4.500000e+01 1.300000e+01 -1.000000e+00
    endloop
  endfacet
  facet normal -1.000000e+00 0.000000e+00 0.000000e+00
    outer loop
      vertex   4.500000e+01 1.300000e+01 -1.000000e+00
      vertex   4.500000e+01 1.700000e+01 -1.000000e+01
      vertex   4.500000e+01 1.300000e+01 -8.000000e+00
    endloop
  endfacet
  facet normal -1.000000e+00 0.000000e+00 -0.000000e+00
    outer loop
      vertex   4.500000e+01 1.300000e+01 -8.000000e+00
      vertex   4.500000e+01 1.700000e+01 -1.000000e+01
      vertex   4.500000e+01 -1.700000e+01 -1.000000e+01
    endloop
  endfacet
  facet normal -1.000000e+00 -0.000000e+00 0.000000e+00
    outer loop
      vertex   4.500000e+01 1.300000e+01 -8.000000e+00
      vertex   4.500000e+01 -1.700000e+01 -1.000000e+01
      vertex   4.500000e+01 -1.700000e+01 -8.000000e+00
    endloop
  endfacet
endsolid
